# xmcd CD database file
#
# Track frame offsets:
#	150
#	19161
#	38867
#	54397
#	72646
#	89404
#	108712
#	126876
#	141885
#	157614
#	175694
#	194742
#
# Disc length: 2813 seconds
#
# Revision: 0
# Processed by: cddbd v1.5.1PL2 Copyright (c) Steve Scherf et al.
# Submitted via: cdripper 1,0,33,916
#
DISCID=a90afb0c
DTITLE=Anne Cochran - Anne Cochran All My Best
DYEAR=2001
DGENRE=Jazz
TTITLE0=After All These Years
TTITLE1=Colour Everywhere
TTITLE2=Send A Message
TTITLE3=Ordinary Miracles
TTITLE4=I Can See Clearly Now
TTITLE5=I Believe
TTITLE6=If My Heart Had Wings
TTITLE7=Lucky Girl
TTITLE8=Someday Love Is Gonna Rescue Me
TTITLE9=I Wish I Could
TTITLE10=Don't Look Back
TTITLE11=Destiny (Live)
EXTD=YEAR: 2001
EXTT0=
EXTT1=
EXTT2=
EXTT3=
EXTT4=
EXTT5=
EXTT6=
EXTT7=
EXTT8=
EXTT9=
EXTT10=
EXTT11=
PLAYORDER=
